<svg width="134" height="35" viewBox="0 0 134 35" fill="none" xmlns="http://www.w3.org/2000/svg">
<path d="M8.83051 0L16.2301 6.36207C16.6694 6.73976 16.9227 7.294 16.9227 7.87778V12.6725L9.52299 6.3105C9.0837 5.93281 8.83051 5.37847 8.83051 4.79469V0Z" fill="#84CC16"/>
<path d="M8.83051 28.8234L16.2301 22.4614C16.6694 22.0837 16.9227 21.5294 16.9227 20.9456V16.151L9.52299 22.5129C9.0837 22.8906 8.83051 23.4449 8.83051 24.0286V28.8234Z" fill="#F97316"/>
<path d="M0 6.70826L7.29899 12.9488C7.65285 13.2513 8.10095 13.4172 8.56401 13.4172H14.4503L7.16932 7.17819C6.81519 6.87482 6.3664 6.70826 5.90261 6.70826H0Z" fill="#06B6D4"/>
<path d="M0 22.114L7.2541 15.8771C7.6086 15.5723 8.05834 15.4049 8.52327 15.4049H14.4679L7.16889 21.6454C6.81499 21.948 6.36688 22.114 5.90384 22.114H0Z" fill="#EAB308"/>
<path d="M26.9758 0L19.5762 6.36207C19.1369 6.73976 18.8837 7.294 18.8837 7.87778V12.6725L26.2833 6.3105C26.7226 5.93281 26.9758 5.37847 26.9758 4.79469V0Z" fill="#22C55E"/>
<path d="M26.9758 28.8234L19.5762 22.4614C19.1369 22.0837 18.8837 21.5294 18.8837 20.9456V16.151L26.2833 22.5129C26.7226 22.8906 26.9758 23.4449 26.9758 24.0286V28.8234Z" fill="#EC4899"/>
<path d="M35.8035 6.70826L28.5045 12.9488C28.1506 13.2513 27.7024 13.4172 27.2394 13.4172H21.3531L28.6342 7.17819C28.9882 6.87482 29.437 6.70826 29.9008 6.70826H35.8035Z" fill="#3B82F6"/>
<path d="M35.8009 22.114L28.5468 15.8771C28.1924 15.5723 27.7425 15.4049 27.2776 15.4049H21.3331L28.632 21.6454C28.9859 21.948 29.434 22.114 29.897 22.114H35.8009Z" fill="#8B5CF6"/>
<path d="M47.4055 13.5078C47.3459 12.9496 47.0945 12.5149 46.6513 12.2038C46.2124 11.8928 45.6413 11.7372 44.9382 11.7372C44.4439 11.7372 44.0199 11.8118 43.6662 11.9609C43.3125 12.1101 43.0419 12.3125 42.8544 12.5682C42.6669 12.8239 42.571 13.1158 42.5668 13.4439C42.5668 13.7166 42.6286 13.9531 42.7521 14.1534C42.88 14.3537 43.0526 14.5241 43.2699 14.6648C43.4872 14.8011 43.728 14.9162 43.9922 15.0099C44.2564 15.1037 44.5227 15.1825 44.7912 15.2464L46.0185 15.5533C46.5128 15.6683 46.9879 15.8239 47.4439 16.0199C47.9041 16.2159 48.3153 16.4631 48.6776 16.7614C49.044 17.0597 49.3338 17.4197 49.5469 17.8416C49.7599 18.2635 49.8665 18.7578 49.8665 19.3246C49.8665 20.0916 49.6705 20.767 49.2784 21.3509C48.8864 21.9304 48.3196 22.3842 47.5781 22.7124C46.8409 23.0362 45.9482 23.1982 44.8999 23.1982C43.8814 23.1982 42.9972 23.0405 42.2472 22.7251C41.5014 22.4098 40.9176 21.9496 40.4957 21.3445C40.0781 20.7393 39.8523 20.0021 39.8182 19.1328H42.1513C42.1854 19.5888 42.326 19.968 42.5732 20.2706C42.8203 20.5732 43.142 20.799 43.5384 20.9482C43.9389 21.0973 44.3864 21.1719 44.8807 21.1719C45.3963 21.1719 45.848 21.0952 46.2358 20.9418C46.6278 20.7841 46.9347 20.5668 47.1562 20.2898C47.3778 20.0085 47.4908 19.6804 47.495 19.3054C47.4908 18.9645 47.3906 18.6832 47.1946 18.4616C46.9986 18.2358 46.7237 18.0483 46.37 17.8991C46.0206 17.7457 45.6115 17.6094 45.1428 17.4901L43.6534 17.1065C42.5753 16.8295 41.723 16.4098 41.0966 15.8473C40.4744 15.2805 40.1634 14.5284 40.1634 13.5909C40.1634 12.8196 40.3722 12.1442 40.7898 11.5646C41.2116 10.9851 41.7848 10.5355 42.5092 10.2159C43.2337 9.89204 44.054 9.73011 44.9702 9.73011C45.8991 9.73011 46.7131 9.89204 47.4119 10.2159C48.1151 10.5355 48.6669 10.9808 49.0675 11.5518C49.468 12.1186 49.6747 12.7706 49.6875 13.5078H47.4055ZM56.7811 13.1818V14.9716H51.1369V13.1818H56.7811ZM52.5304 10.8295H54.8443V20.0469C54.8443 20.358 54.8912 20.5966 54.9849 20.7628C55.0829 20.9247 55.2108 21.0355 55.3684 21.0952C55.5261 21.1548 55.7008 21.1847 55.8926 21.1847C56.0375 21.1847 56.1696 21.174 56.2889 21.1527C56.4125 21.1314 56.5062 21.1122 56.5701 21.0952L56.9601 22.9041C56.8365 22.9467 56.6596 22.9936 56.4295 23.0447C56.2037 23.0959 55.9267 23.1257 55.5985 23.1342C55.019 23.1513 54.497 23.0639 54.0325 22.8722C53.568 22.6761 53.1994 22.3736 52.9267 21.9645C52.6582 21.5554 52.5261 21.044 52.5304 20.4304V10.8295ZM61.5415 23.1982C60.9194 23.1982 60.359 23.0874 59.8604 22.8658C59.3661 22.6399 58.9741 22.3075 58.6843 21.8686C58.3988 21.4297 58.256 20.8885 58.256 20.245C58.256 19.6911 58.3583 19.233 58.5629 18.8707C58.7674 18.5085 59.0465 18.2188 59.4002 18.0014C59.7539 17.7841 60.1523 17.62 60.5955 17.5092C61.043 17.3942 61.5053 17.3111 61.9826 17.2599C62.5579 17.2003 63.0245 17.147 63.3825 17.1001C63.7404 17.049 64.0004 16.9723 64.1623 16.87C64.3285 16.7635 64.4116 16.5994 64.4116 16.3778V16.3395C64.4116 15.858 64.2688 15.4851 63.9833 15.2209C63.6978 14.9567 63.2866 14.8246 62.7496 14.8246C62.1829 14.8246 61.7333 14.9482 61.4009 15.1953C61.0728 15.4425 60.8512 15.7344 60.7362 16.071L58.5756 15.7642C58.7461 15.1676 59.0273 14.669 59.4194 14.2685C59.8114 13.8636 60.2908 13.5611 60.8576 13.3608C61.4244 13.1562 62.0508 13.054 62.7369 13.054C63.2099 13.054 63.6808 13.1094 64.1495 13.2202C64.6183 13.331 65.0465 13.5142 65.4343 13.7699C65.8221 14.0213 66.1332 14.3643 66.3675 14.799C66.6062 15.2337 66.7255 15.777 66.7255 16.429V23H64.5011V21.6513H64.4244C64.2837 21.924 64.0856 22.1797 63.8299 22.4183C63.5785 22.6527 63.261 22.8423 62.8775 22.9872C62.4982 23.1278 62.0529 23.1982 61.5415 23.1982ZM62.1424 21.4979C62.6069 21.4979 63.0096 21.4062 63.3505 21.223C63.6914 21.0355 63.9535 20.7884 64.1367 20.4815C64.3242 20.1747 64.418 19.8402 64.418 19.478V18.321C64.3455 18.3807 64.2219 18.4361 64.0472 18.4872C63.8768 18.5384 63.685 18.5831 63.4719 18.6214C63.2589 18.6598 63.0479 18.6939 62.8391 18.7237C62.6303 18.7536 62.4492 18.7791 62.2958 18.8004C61.9506 18.8473 61.6417 18.924 61.369 19.0305C61.0962 19.1371 60.881 19.2862 60.7234 19.478C60.5657 19.6655 60.4869 19.9084 60.4869 20.2067C60.4869 20.6328 60.6424 20.9545 60.9535 21.1719C61.2646 21.3892 61.6609 21.4979 62.1424 21.4979ZM73.3349 23.1918C72.3548 23.1918 71.5131 22.9766 70.81 22.5462C70.1112 22.1158 69.5721 21.5213 69.1928 20.7628C68.8178 20 68.6303 19.1222 68.6303 18.1293C68.6303 17.1321 68.8221 16.2521 69.2056 15.4893C69.5891 14.7223 70.1303 14.1257 70.8292 13.6996C71.5323 13.2692 72.3633 13.054 73.3221 13.054C74.119 13.054 74.8242 13.201 75.4379 13.495C76.0558 13.7848 76.5479 14.196 76.9144 14.7287C77.2809 15.2571 77.4897 15.875 77.5408 16.5824H75.3292C75.2397 16.1094 75.0266 15.7152 74.69 15.3999C74.3576 15.0803 73.9123 14.9205 73.354 14.9205C72.881 14.9205 72.4656 15.0483 72.1076 15.304C71.7496 15.5554 71.4705 15.9176 71.2702 16.3906C71.0742 16.8636 70.9762 17.4304 70.9762 18.0909C70.9762 18.7599 71.0742 19.3352 71.2702 19.8168C71.4663 20.294 71.7411 20.6626 72.0948 20.9226C72.4528 21.1783 72.8725 21.3061 73.354 21.3061C73.695 21.3061 73.9996 21.2422 74.2681 21.1143C74.5408 20.9822 74.7688 20.7926 74.9521 20.5455C75.1353 20.2983 75.261 19.9979 75.3292 19.6442H77.5408C77.4854 20.3388 77.2809 20.9545 76.9272 21.4915C76.5735 22.0241 76.092 22.4418 75.4826 22.7443C74.8732 23.0426 74.1573 23.1918 73.3349 23.1918ZM81.5502 19.919L81.5439 17.1257H81.9146L85.443 13.1818H88.1468L83.8066 18.0142H83.3272L81.5502 19.919ZM79.4409 23V9.90909H81.7548V23H79.4409ZM85.6028 23L82.4068 18.532L83.9664 16.902L88.3706 23H85.6028ZM89.7912 9.90909H92.6932L96.5795 19.3949H96.733L100.619 9.90909H103.521V23H101.246V14.0064H101.124L97.5064 22.9616H95.8061L92.1882 13.9872H92.0668V23H89.7912V9.90909ZM106.001 23V13.1818H108.315V23H106.001ZM107.165 11.7884C106.798 11.7884 106.483 11.6669 106.219 11.424C105.955 11.1768 105.822 10.8807 105.822 10.5355C105.822 10.1861 105.955 9.88991 106.219 9.64702C106.483 9.39986 106.798 9.27628 107.165 9.27628C107.536 9.27628 107.851 9.39986 108.111 9.64702C108.375 9.88991 108.507 10.1861 108.507 10.5355C108.507 10.8807 108.375 11.1768 108.111 11.424C107.851 11.6669 107.536 11.7884 107.165 11.7884ZM113.009 17.2472V23H110.695V13.1818H112.906V14.8501H113.021C113.247 14.3004 113.607 13.8636 114.102 13.5398C114.6 13.2159 115.216 13.054 115.949 13.054C116.627 13.054 117.217 13.1989 117.72 13.4886C118.227 13.7784 118.619 14.1982 118.896 14.7479C119.177 15.2976 119.316 15.9645 119.311 16.7486V23H116.997V17.1065C116.997 16.4503 116.827 15.9368 116.486 15.5661C116.149 15.1953 115.683 15.0099 115.086 15.0099C114.681 15.0099 114.321 15.0994 114.006 15.2784C113.695 15.4531 113.45 15.7067 113.271 16.0391C113.096 16.3714 113.009 16.7741 113.009 17.2472ZM125.307 23.1726C124.536 23.1726 123.845 22.9744 123.236 22.5781C122.627 22.1818 122.145 21.6065 121.791 20.8523C121.438 20.098 121.261 19.1818 121.261 18.1037C121.261 17.0128 121.44 16.0923 121.798 15.3423C122.16 14.5881 122.648 14.0192 123.262 13.6357C123.875 13.2479 124.559 13.054 125.313 13.054C125.889 13.054 126.362 13.152 126.732 13.348C127.103 13.5398 127.397 13.772 127.615 14.0447C127.832 14.3132 128 14.5668 128.119 14.8054H128.215V9.90909H130.536V23H128.26V21.4531H128.119C128 21.6918 127.828 21.9453 127.602 22.2138C127.376 22.478 127.078 22.7038 126.707 22.8913C126.336 23.0788 125.869 23.1726 125.307 23.1726ZM125.953 21.2741C126.443 21.2741 126.86 21.142 127.205 20.8778C127.551 20.6094 127.813 20.2365 127.992 19.7592C128.171 19.282 128.26 18.7259 128.26 18.0909C128.26 17.456 128.171 16.9041 127.992 16.4354C127.817 15.9666 127.557 15.6023 127.212 15.3423C126.871 15.0824 126.451 14.9524 125.953 14.9524C125.437 14.9524 125.007 15.0866 124.661 15.3551C124.316 15.6236 124.056 15.9943 123.882 16.4673C123.707 16.9403 123.619 17.4815 123.619 18.0909C123.619 18.7045 123.707 19.2521 123.882 19.7337C124.061 20.2109 124.323 20.5881 124.668 20.8651C125.017 21.1378 125.445 21.2741 125.953 21.2741Z" fill="#22C55E"/>
</svg>
